<mxfile host="app.diagrams.net" modified="2023-12-02T16:52:48.037Z" agent="Mozilla/5.0 (X11; Linux x86_64) AppleWebKit/537.36 (KHTML, like Gecko) Chrome/119.0.0.0 Safari/537.36" version="22.1.5" etag="yMKVncmuVnfeQxXKqJcE" type="github">
  <diagram name="Страница — 1" id="erup_I4zuQpHGs1PMjBh">
    <mxGraphModel>
      <root>
        <mxCell id="0" />
        <mxCell id="1" parent="0" />
      </root>
    </mxGraphModel>
  </diagram>
</mxfile>
